<?xml version="1.0" encoding="UTF-8" standalone="no"?>
<svg
   xmlns:dc="http://purl.org/dc/elements/1.1/"
   xmlns:cc="http://creativecommons.org/ns#"
   xmlns:rdf="http://www.w3.org/1999/02/22-rdf-syntax-ns#"
   xmlns:svg="http://www.w3.org/2000/svg"
   xmlns="http://www.w3.org/2000/svg"
   xmlns:sodipodi="http://sodipodi.sourceforge.net/DTD/sodipodi-0.dtd"
   xmlns:inkscape="http://www.inkscape.org/namespaces/inkscape"
   inkscape:version="1.0 (4035a4fb49, 2020-05-01)"
   sodipodi:docname="undraw_empty_cart_co35.svg"
   version="1.1"
   viewBox="0 0 896 747.97143"
   height="747.97143"
   width="896"
   data-name="Layer 1"
   id="ffc6eb9a-0ec0-429c-85a8-ff38b44048bf">
  <metadata
     id="metadata141">
    <rdf:RDF>
      <cc:Work
         rdf:about="">
        <dc:format>image/svg+xml</dc:format>
        <dc:type
           rdf:resource="http://purl.org/dc/dcmitype/StillImage" />
      </cc:Work>
    </rdf:RDF>
  </metadata>
  <defs
     id="defs139" />
  <sodipodi:namedview
     inkscape:current-layer="ffc6eb9a-0ec0-429c-85a8-ff38b44048bf"
     inkscape:window-maximized="1"
     inkscape:window-y="-9"
     inkscape:window-x="-9"
     inkscape:cy="337.14339"
     inkscape:cx="440.57916"
     inkscape:zoom="0.55483402"
     showgrid="false"
     id="namedview137"
     inkscape:window-height="1001"
     inkscape:window-width="1920"
     inkscape:pageshadow="2"
     inkscape:pageopacity="0"
     guidetolerance="10"
     gridtolerance="10"
     objecttolerance="10"
     borderopacity="1"
     bordercolor="#666666"
     pagecolor="#ffffff" />
  <title
     id="title2">empty_cart</title>
  <g
     transform="matrix(0.23614457,0,0,0.23614457,342.20723,285.67102)"
     id="g1032">
    <path
       d="m 193.634,788.75225 c 12.42842,23.049 38.806,32.9435 38.806,32.9435 0,0 6.22712,-27.47543 -6.2013,-50.52448 -12.42842,-23.04905 -38.806,-32.9435 -38.806,-32.9435 0,0 -6.22711,27.47543 6.2013,50.52448 z"
       transform="translate(-152,-76.01429)"
       fill="#2f2e41"
       id="path4" />
    <path
       d="m 202.17653,781.16927 c 22.43841,13.49969 31.08016,40.3138 31.08016,40.3138 0,0 -27.73812,4.92679 -50.17653,-8.57291 C 160.64175,799.41046 152,772.59636 152,772.59636 c 0,0 27.73811,-4.92678 50.17653,8.57291 z"
       transform="translate(-152,-76.01429)"
       fill="#6592e6"
       id="path6" />
    <rect
       x="413.2485"
       y="35.907791"
       width="140"
       height="2"
       fill="#f2f2f2"
       id="rect8" />
    <rect
       x="513.24847"
       y="37.407791"
       width="2"
       height="18.5"
       fill="#f2f2f2"
       id="rect10" />
    <rect
       x="452.2485"
       y="37.407791"
       width="2"
       height="18.5"
       fill="#f2f2f2"
       id="rect12" />
    <rect
       x="484.2485"
       y="131.90779"
       width="140"
       height="2"
       fill="#f2f2f2"
       id="rect14" />
    <rect
       x="522.24847"
       y="113.90779"
       width="2"
       height="18.5"
       fill="#f2f2f2"
       id="rect16" />
    <rect
       x="583.24847"
       y="113.90779"
       width="2"
       height="18.5"
       fill="#f2f2f2"
       id="rect18" />
    <rect
       x="670.24847"
       y="176.90779"
       width="140"
       height="2"
       fill="#f2f2f2"
       id="rect20" />
    <rect
       x="708.24847"
       y="158.90779"
       width="2"
       height="18.5"
       fill="#f2f2f2"
       id="rect22" />
    <rect
       x="769.24847"
       y="158.90779"
       width="2"
       height="18.5"
       fill="#f2f2f2"
       id="rect24" />
    <rect
       x="656.24847"
       y="640.90778"
       width="140"
       height="2"
       fill="#f2f2f2"
       id="rect26" />
    <rect
       x="694.24847"
       y="622.90778"
       width="2"
       height="18.5"
       fill="#f2f2f2"
       id="rect28" />
    <rect
       x="755.24847"
       y="622.90778"
       width="2"
       height="18.5"
       fill="#f2f2f2"
       id="rect30" />
    <rect
       x="417.2485"
       y="319.90778"
       width="140"
       height="2"
       fill="#f2f2f2"
       id="rect32" />
    <rect
       x="455.2485"
       y="301.90778"
       width="2"
       height="18.5"
       fill="#f2f2f2"
       id="rect34" />
    <rect
       x="516.24847"
       y="301.90778"
       width="2"
       height="18.5"
       fill="#f2f2f2"
       id="rect36" />
    <rect
       x="461.2485"
       y="560.90778"
       width="140"
       height="2"
       fill="#f2f2f2"
       id="rect38" />
    <rect
       x="499.2485"
       y="542.90778"
       width="2"
       height="18.5"
       fill="#f2f2f2"
       id="rect40" />
    <rect
       x="560.24847"
       y="542.90778"
       width="2"
       height="18.5"
       fill="#f2f2f2"
       id="rect42" />
    <rect
       x="685.24847"
       y="487.90778"
       width="140"
       height="2"
       fill="#f2f2f2"
       id="rect44" />
    <rect
       x="723.24847"
       y="469.90778"
       width="2"
       height="18.5"
       fill="#f2f2f2"
       id="rect46" />
    <rect
       x="784.24847"
       y="469.90778"
       width="2"
       height="18.5"
       fill="#f2f2f2"
       id="rect48" />
    <polygon
       points="360.356,700.481 360.356,617.861 145.18,617.861 134.727,596.084 136.263,595.347 146.252,616.157 362.06,616.157 362.06,702.184 125.274,702.184 125.274,700.481 "
       fill="#2f2e41"
       id="polygon50" />
    <circle
       cx="156.78851"
       cy="726.03302"
       r="17.88673"
       fill="#3f3d56"
       id="circle52" />
    <circle
       cx="333.10052"
       cy="726.03302"
       r="17.88673"
       fill="#3f3d56"
       id="circle54" />
    <circle
       cx="540.92725"
       cy="346.15302"
       r="11.07274"
       fill="#3f3d56"
       id="circle56" />
    <path
       d="M 539.38538,665.76747 H 273.23673 L 215.64844,477.531 h 383.04412 l -0.34852,1.10753 z m -264.8885,-1.7035 H 538.136 L 596.37017,479.23446 H 217.95082 Z"
       transform="translate(-152,-76.01429)"
       fill="#2f2e41"
       id="path58" />
    <polygon
       points="418.701,413.015 418.395,413.998 366.61,579.958 132.842,579.958 82.26,413.015 "
       fill="#f2f2f2"
       id="polygon60" />
    <polygon
       points="526.448,341.894 526.448,343.598 462.37,343.598 451.465,384.7 449.818,384.263 461.059,341.894 "
       fill="#2f2e41"
       id="polygon62" />
    <rect
       x="82.2584"
       y="458.58386"
       width="345.29309"
       height="1.7035"
       fill="#2f2e41"
       id="rect64" />
    <rect
       x="101.45894"
       y="521.34375"
       width="306.31851"
       height="1.7035"
       fill="#2f2e41"
       id="rect66" />
    <rect
       x="254.31377"
       y="402.36844"
       width="1.7035"
       height="186.533"
       fill="#2f2e41"
       id="rect68" />
    <rect
       x="385.55746"
       y="570.7973"
       width="186.92877"
       height="1.7037899"
       transform="rotate(-86.24919,362.44141,614.78759)"
       fill="#2f2e41"
       id="rect70" />
    <rect
       x="334.45728"
       y="478.18484"
       width="1.7037899"
       height="186.92877"
       transform="rotate(-3.729,-908.23192,2868.2851)"
       fill="#2f2e41"
       id="rect72" />
    <rect
       x="0"
       y="745"
       width="896"
       height="2"
       fill="#2f2e41"
       id="rect74" />
    <path
       d="m 747.41068,137.89028 c 0,0 14.61842,41.60627 5.62246,48.00724 -8.99596,6.40097 30.36134,58.67548 30.36134,58.67548 l 47.22874,-12.80193 -25.86336,-43.73993 c 0,0 -3.37348,-43.73992 -3.37348,-50.14089 0,-6.40097 -53.9757,3e-5 -53.9757,3e-5 z"
       transform="translate(-152,-76.01429)"
       fill="#a0616a"
       id="path76" />
    <path
       d="m 747.41068,137.89028 c 0,0 14.61842,41.60627 5.62246,48.00724 -8.99596,6.40097 30.36134,58.67548 30.36134,58.67548 l 47.22874,-12.80193 -25.86336,-43.73993 c 0,0 -3.37348,-43.73992 -3.37348,-50.14089 0,-6.40097 -53.9757,3e-5 -53.9757,3e-5 z"
       transform="translate(-152,-76.01429)"
       opacity="0.1"
       id="path78" />
    <path
       d="m 722.87364,434.46832 c 0,0 -4.26731,53.34138 0,81.07889 4.26731,27.73751 10.66828,104.5491 10.66828,104.5491 0,0 0,145.08854 23.4702,147.22219 23.4702,2.13365 40.53945,4.26731 42.6731,-4.26731 2.13365,-8.53462 -10.66827,-12.80193 -4.26731,-17.06924 6.40096,-4.26731 8.53462,-19.20289 0,-36.27213 -8.53462,-17.06924 0,-189.8953 0,-189.8953 l 40.53945,108.81641 c 0,0 4.26731,89.61351 8.53462,102.41544 4.26731,12.80193 -4.26731,36.27213 10.66827,38.40579 14.93558,2.13366 32.00483,-10.66828 40.53945,-14.93559 8.53462,-4.26731 -12.80193,-4.26731 -8.53462,-6.401 4.26731,-2.13369 17.06924,-8.53462 12.80193,-10.66828 -4.26731,-2.13366 -8.53462,-104.54909 -8.53462,-104.54909 0,0 -11.73511,-218.6996 -26.67069,-227.2342 -14.93558,-8.5346 -24.537,6.16576 -24.537,6.16576 z"
       transform="translate(-152,-76.01429)"
       fill="#2f2e41"
       id="path80" />
    <path
       d="m 761.27943,758.78388 v 17.06924 c 0,0 -19.20289,46.39942 0,46.39942 19.20289,0 34.13848,4.8083 34.13848,-1.59266 v -57.60869 z"
       transform="translate(-152,-76.01429)"
       fill="#2f2e41"
       id="path82" />
    <path
       d="m 887.16508,758.75358 v 17.06924 c 0,0 19.20289,46.39941 0,46.39941 -19.20289,0 -34.13848,4.80831 -34.13848,-1.59266 v -57.60868 z"
       transform="translate(-152,-76.01429)"
       fill="#2f2e41"
       id="path84" />
    <circle
       cx="625.28186"
       cy="54.408199"
       r="38.405788"
       fill="#a0616a"
       id="circle86" />
    <path
       d="m 765.54674,201.89993 c 0,0 10.66828,32.00482 27.73752,25.60386 l 17.06924,-6.401 29.87117,204.83091 c 0,0 -23.47021,34.13848 -57.60869,12.80193 -34.13848,-21.33655 -17.06924,-236.8357 -17.06924,-236.8357 z"
       transform="translate(-152,-76.01429)"
       fill="#6592e6"
       id="path88" />
    <path
       d="m 795.41791,195.499 9.60145,-20.26972 c 0,0 56.54186,26.67069 65.07648,35.20531 8.53462,8.53462 8.53462,21.33655 8.53462,21.33655 l -14.93559,53.34137 c 0,0 4.26731,117.351 4.26731,121.61834 0,4.26734 14.93559,27.73751 4.26731,19.20289 -10.66828,-8.53462 -12.80193,-17.06924 -21.33655,-4.26731 -8.53462,12.80193 -27.73751,27.73752 -27.73751,27.73752 z"
       transform="translate(-152,-76.01429)"
       fill="#3f3d56"
       id="path90" />
    <path
       d="m 870.09584,349.12212 -6.401,59.74234 c 0,0 -38.40579,34.13848 -29.87117,36.27214 8.53462,2.13366 12.80193,-6.401 12.80193,-6.401 0,0 14.93559,14.93559 23.47021,6.401 8.53462,-8.53459 29.87119,-89.61351 29.87119,-89.61351 z"
       transform="translate(-152,-76.01429)"
       fill="#a0616a"
       id="path92" />
    <path
       d="m 778.1,76.14416 c -8.51412,-0.30437 -17.62549,-0.45493 -24.80406,4.13321 a 36.31263,36.31263 0 0 0 -8.5723,8.39153 c -6.99153,8.83846 -13.03253,19.95926 -10.43553,30.92537 l 3.01633,-1.1764 a 19.75086,19.75086 0 0 1 -1.90515,8.46261 c 0.42475,-1.2351 1.84722,0.76151 1.4664,2.01085 L 733.543,139.792 c 5.46207,-2.00239 12.25661,2.05189 13.08819,7.80969 0.37974,-12.66123 1.6932,-27.17965 11.964,-34.59331 5.17951,-3.73868 11.73465,-4.88 18.04162,-5.8935 5.81832,-0.935 11.91781,-1.82659 17.49077,0.0889 5.57296,1.91545 10.31871,7.615 9.0553,13.37093 2.56964,-0.88518 5.44356,0.90566 6.71347,3.30856 1.26991,2.4029 1.33662,5.2375 1.37484,7.95506 2.73911,1.93583 5.85632,-1.9082 6.97263,-5.07112 2.62033,-7.42434 4.94941,-15.32739 3.53783,-23.073 -1.41158,-7.74561 -7.72325,-15.14773 -15.59638,-15.174 a 5.46676,5.46676 0 0 0 1.42176,-3.84874 l -6.48928,-0.5483 a 7.1723,7.1723 0 0 0 4.28575,-2.25954 C 802.7981,84.73052 782.31323,76.29477 778.1,76.14416 Z"
       transform="translate(-152,-76.01429)"
       fill="#2f2e41"
       id="path94" />
    <path
       d="m 776.215,189.098 c 0,0 -17.36929,-17.02085 -23.62023,-15.97822 -6.25094,1.04263 -14.78554,15.97822 -14.78554,15.97822 0,0 -51.20772,17.06924 -49.07407,34.13848 2.13365,17.06924 25.60384,100.28178 25.60384,100.28178 0,0 19.2029,100.28179 2.13366,110.95006 -17.06924,10.66827 81.07889,38.40579 83.21254,25.60386 2.13365,-12.80193 6.401,-140.82123 0,-160.02412 C 793.2842,280.84517 776.215,189.098 776.215,189.098 Z"
       transform="translate(-152,-76.01429)"
       fill="#3f3d56"
       id="path96" />
    <path
       d="m 850.89294,223.23648 h 26.38265 c 0,0 18.42411,81.07889 20.55776,89.61352 2.13365,8.53463 6.401,49.07406 4.26731,49.07406 -2.13369,0 -44.80675,-8.53462 -44.80675,-2.13365 z"
       transform="translate(-152,-76.01429)"
       fill="#3f3d56"
       id="path98" />
    <path
       d="M 850,424.01429 H 749 c -9.85608,-45.34 -10.67957,-89.14649 0,-131 h 101 c -16.29919,41.10071 -17.31775,84.60708 0,131 z"
       transform="translate(-152,-76.01429)"
       fill="#f2f2f2"
       id="path100" />
    <path
       d="m 707.93806,368.325 29.87117,12.802 c 0,0 57.60868,8.53462 57.60868,-14.93559 0,-23.47021 -57.60868,-10.66827 -57.60868,-10.66827 L 718.60505,349.383 Z"
       transform="translate(-152,-76.01429)"
       fill="#a0616a"
       id="path102" />
    <path
       d="m 714.339,210.43455 -25.60386,6.401 -19.20287,113.08368 c 0,0 -6.401,29.87117 4.26731,32.00482 10.66831,2.13365 40.53942,19.20295 40.53942,19.20295 0,0 4.26731,-32.00483 12.80193,-32.00483 L 705.8044,332.05288 718.60633,257.375 Z"
       transform="translate(-152,-76.01429)"
       fill="#3f3d56"
       id="path104" />
    <rect
       x="60.248501"
       y="352.90778"
       width="140"
       height="2"
       fill="#f2f2f2"
       id="rect106" />
    <rect
       x="98.248497"
       y="334.90778"
       width="2"
       height="18.5"
       fill="#f2f2f2"
       id="rect108" />
    <rect
       x="159.2485"
       y="334.90778"
       width="2"
       height="18.5"
       fill="#f2f2f2"
       id="rect110" />
    <rect
       x="109.2485"
       y="56.907791"
       width="140"
       height="2"
       fill="#f2f2f2"
       id="rect112" />
    <rect
       x="209.2485"
       y="58.407791"
       width="2"
       height="18.5"
       fill="#f2f2f2"
       id="rect114" />
    <rect
       x="148.2485"
       y="58.407791"
       width="2"
       height="18.5"
       fill="#f2f2f2"
       id="rect116" />
    <rect
       x="250.2485"
       y="253.90779"
       width="140"
       height="2"
       fill="#f2f2f2"
       id="rect118" />
    <rect
       x="350.2485"
       y="255.40779"
       width="2"
       height="18.5"
       fill="#f2f2f2"
       id="rect120" />
    <rect
       x="289.2485"
       y="255.40779"
       width="2"
       height="18.5"
       fill="#f2f2f2"
       id="rect122" />
    <rect
       x="12.2485"
       y="252.90779"
       width="140"
       height="2"
       fill="#f2f2f2"
       id="rect124" />
    <rect
       x="112.2485"
       y="254.40779"
       width="2"
       height="18.5"
       fill="#f2f2f2"
       id="rect126" />
    <rect
       x="51.248501"
       y="254.40779"
       width="2"
       height="18.5"
       fill="#f2f2f2"
       id="rect128" />
    <rect
       x="180.2485"
       y="152.90779"
       width="140"
       height="2"
       fill="#f2f2f2"
       id="rect130" />
    <rect
       x="218.2485"
       y="134.90779"
       width="2"
       height="18.5"
       fill="#f2f2f2"
       id="rect132" />
    <rect
       x="279.2485"
       y="134.90779"
       width="2"
       height="18.5"
       fill="#f2f2f2"
       id="rect134" />
  </g>
</svg>
